<?xml version="1.0" encoding="UTF-8" standalone="no"?>
<svg
   xmlns:dc="http://purl.org/dc/elements/1.1/"
   xmlns:cc="http://creativecommons.org/ns#"
   xmlns:rdf="http://www.w3.org/1999/02/22-rdf-syntax-ns#"
   xmlns:svg="http://www.w3.org/2000/svg"
   xmlns="http://www.w3.org/2000/svg"
   viewBox="0 0 45.888626 45.888626"
   height="45.888626"
   width="45.888626"
   xml:space="preserve"
   version="1.1"
   id="svg2"><metadata
     id="metadata8"><rdf:RDF><cc:Work
         rdf:about=""><dc:format>image/svg+xml</dc:format><dc:type
           rdf:resource="http://purl.org/dc/dcmitype/StillImage" /></cc:Work></rdf:RDF></metadata><defs
     id="defs6"><clipPath
       id="clipPath16"
       clipPathUnits="userSpaceOnUse"><path
         id="path18"
         d="m 0,36.711 36.711,0 L 36.711,0 0,0 0,36.711 Z" /></clipPath></defs><g
     transform="matrix(1.25,0,0,-1.25,0,45.888625)"
     id="g10"><g
       id="g12"><g
         clip-path="url(#clipPath16)"
         id="g14"><g
           transform="translate(36.7109,2.0254)"
           id="g20"><path
             id="path22"
             style="fill:#ffffff;fill-opacity:1;fill-rule:nonzero;stroke:none"
             d="m 0,0 c 0,-1.119 -0.907,-2.025 -2.026,-2.025 l -9.355,0 0,14.215 4.772,0 0.714,5.541 -5.486,0 0,3.538 c 0,1.603 0.445,2.696 2.746,2.696 l 2.934,0.001 0,4.956 c -0.508,0.067 -2.249,0.219 -4.276,0.219 -4.23,0 -7.126,-2.582 -7.126,-7.324 l 0,-4.086 -4.784,0 0,-5.541 4.784,0 0,-14.215 -17.582,0 c -1.119,0 -2.026,0.906 -2.026,2.025 l 0,32.659 c 0,1.119 0.907,2.027 2.026,2.027 l 32.659,0 C -0.907,34.686 0,33.778 0,32.659 L 0,0 Z" /></g></g></g></g></svg>