<?xml version="1.0" encoding="UTF-8" standalone="no"?>
<svg
   xmlns:dc="http://purl.org/dc/elements/1.1/"
   xmlns:cc="http://creativecommons.org/ns#"
   xmlns:rdf="http://www.w3.org/1999/02/22-rdf-syntax-ns#"
   xmlns:svg="http://www.w3.org/2000/svg"
   xmlns="http://www.w3.org/2000/svg"
   viewBox="0 0 45.828876 45.828876"
   height="45.828876"
   width="45.828876"
   xml:space="preserve"
   version="1.1"
   id="svg2"><metadata
     id="metadata8"><rdf:RDF><cc:Work
         rdf:about=""><dc:format>image/svg+xml</dc:format><dc:type
           rdf:resource="http://purl.org/dc/dcmitype/StillImage" /></cc:Work></rdf:RDF></metadata><defs
     id="defs6"><clipPath
       id="clipPath16"
       clipPathUnits="userSpaceOnUse"><path
         id="path18"
         d="m 0,36.663 36.663,0 L 36.663,0 0,0 0,36.663 Z" /></clipPath></defs><g
     transform="matrix(1.25,0,0,-1.25,0,45.828875)"
     id="g10"><g
       id="g12"><g
         clip-path="url(#clipPath16)"
         id="g14"><g
           transform="translate(33.2256,4.583)"
           id="g20"><path
             id="path22"
             style="fill:#ffffff;fill-opacity:1;fill-rule:nonzero;stroke:none"
             d="m 0,0 c 0,-0.632 -0.513,-1.146 -1.146,-1.146 l -27.497,0 c -0.632,0 -1.146,0.514 -1.146,1.146 l 0,17.186 4.583,0 c -0.597,-0.859 -0.798,-2.462 -0.798,-3.48 0,-6.136 5.003,-11.127 11.152,-11.127 6.15,0 11.154,4.991 11.154,11.127 0,1.018 -0.145,2.596 -0.885,3.48 L 0,17.186 0,0 Z m -14.852,20.739 c 3.894,0 7.051,-3.149 7.051,-7.033 0,-3.886 -3.157,-7.034 -7.051,-7.034 -3.893,0 -7.05,3.148 -7.05,7.034 0,3.884 3.157,7.033 7.05,7.033 m 7.978,5.613 c 0,0.631 0.513,1.145 1.145,1.145 l 3.438,0 c 0.632,0 1.145,-0.514 1.145,-1.145 l 0,-3.438 c 0,-0.633 -0.513,-1.145 -1.145,-1.145 l -3.438,0 c -0.632,0 -1.145,0.512 -1.145,1.145 l 0,3.438 z m 5.953,5.728 -27.947,0 c -2.407,0 -4.358,-1.946 -4.358,-4.349 l 0,-27.966 c 0,-2.402 1.951,-4.348 4.358,-4.348 l 27.947,0 c 2.407,0 4.359,1.946 4.359,4.348 l 0,27.966 c 0,2.403 -1.952,4.349 -4.359,4.349" /></g></g></g></g></svg>