<svg style="display:none">
	<symbol id="vk" viewBox="0 0 20px 20px" xmlns="http://www.w3.org/2000/svg">
	
	<path class="cls-1" d="M19.91,10.38l-.07-.13a10.73,10.73,0,0,0-2.06-2.38l0,0h0q-.67-.64-.85-.86a.81.81,0,0,1-.15-.85,7.93,7.93,0,0,1,.94-1.37l.68-.89Q20.2,1.43,20,.76L19.9.66a.61.61,0,0,0-.33-.17,1.64,1.64,0,0,0-.67,0h-3a.92.92,0,0,1-.21.09l-.14,0-.05,0,0,0a.45.45,0,0,0-.12.11.72.72,0,0,0-.1.18,17.07,17.07,0,0,1-1.12,2.35q-.39.65-.71,1.12a5.44,5.44,0,0,1-.54.7,3.75,3.75,0,0,1-.4.36c-.12.09-.21.13-.27.12l-.18,0a.69.69,0,0,1-.23-.26,1.13,1.13,0,0,1-.12-.41q0-.25,0-.42c0-.12,0-.29,0-.5s0-.36,0-.44q0-.4,0-.86t0-.74q0-.27,0-.57a2.4,2.4,0,0,0,0-.47,1.61,1.61,0,0,0-.11-.33.56.56,0,0,0-.21-.25A1.2,1.2,0,0,0,11,.14,7,7,0,0,0,9.58,0,6.85,6.85,0,0,0,7.08.25a1.4,1.4,0,0,0-.4.31Q6.5.8,6.63.82a1.28,1.28,0,0,1,.89.45l.06.13a2,2,0,0,1,.15.48,4.82,4.82,0,0,1,.09.76,8,8,0,0,1,0,1.31q-.05.54-.1.85a1.69,1.69,0,0,1-.14.49,2,2,0,0,1-.13.23l-.05.05a.77.77,0,0,1-.28.05.66.66,0,0,1-.35-.15,2.5,2.5,0,0,1-.43-.4,5.36,5.36,0,0,1-.51-.71q-.28-.46-.58-1.09L5.08,3q-.16-.29-.43-.85T4.17,1A.69.69,0,0,0,3.92.69l-.05,0L3.7.57c-.08,0-.24,0-.24,0L.66.64a.72.72,0,0,0-.59.2L0,.9a.34.34,0,0,0,0,.16.82.82,0,0,0,.06.28q.62,1.45,1.34,2.8T2.67,6.31q.54.82,1.09,1.55t.74.94l.28.31L5,9.36a6,6,0,0,0,.73.59,12.39,12.39,0,0,0,1.06.68,5.76,5.76,0,0,0,1.35.55,4.67,4.67,0,0,0,1.5.17h1.27a1.36,1.36,0,0,0,.55-.2l0-.05a.68.68,0,0,0,.08-.19,1.06,1.06,0,0,0,0-.29,3.46,3.46,0,0,1,.07-.81,2.13,2.13,0,0,1,.18-.54A1.32,1.32,0,0,1,12.13,9a.88.88,0,0,1,.18-.15l.08,0a.66.66,0,0,1,.59.16,3.5,3.5,0,0,1,.64.61q.3.36.71.81a5,5,0,0,0,.73.67l.21.13a2.53,2.53,0,0,0,.54.23c.22.07.58.14.58.14l2.68,0a1.25,1.25,0,0,0,.64-.13A.53.53,0,0,0,20,11a.84.84,0,0,0,0-.37,1.41,1.41,0,0,0-.08-.29Zm0-.05"/>
	</symbol>
</svg>