<?xml version="1.0" encoding="UTF-8" standalone="no"?>
<svg
   xmlns:dc="http://purl.org/dc/elements/1.1/"
   xmlns:cc="http://creativecommons.org/ns#"
   xmlns:rdf="http://www.w3.org/1999/02/22-rdf-syntax-ns#"
   xmlns:svg="http://www.w3.org/2000/svg"
   xmlns="http://www.w3.org/2000/svg"
   viewBox="0 0 46.816376 39.013626"
   height="39.013626"
   width="46.816376"
   xml:space="preserve"
   version="1.1"
   id="svg2"><metadata
     id="metadata8"><rdf:RDF><cc:Work
         rdf:about=""><dc:format>image/svg+xml</dc:format><dc:type
           rdf:resource="http://purl.org/dc/dcmitype/StillImage" /></cc:Work></rdf:RDF></metadata><defs
     id="defs6"><clipPath
       id="clipPath16"
       clipPathUnits="userSpaceOnUse"><path
         id="path18"
         d="m 0,31.211 37.453,0 L 37.453,0 0,0 0,31.211 Z" /></clipPath></defs><g
     transform="matrix(1.25,0,0,-1.25,0,39.013625)"
     id="g10"><g
       id="g12"><g
         clip-path="url(#clipPath16)"
         id="g14"><g
           transform="translate(36.4209,30.6338)"
           id="g20"><path
             id="path22"
             style="fill:#ffffff;fill-opacity:1;fill-rule:nonzero;stroke:none"
             d="m 0,0 c -1.486,-0.902 -3.129,-1.558 -4.884,-1.909 -1.397,1.53 -3.395,2.486 -5.607,2.486 -4.24,0 -7.682,-3.528 -7.682,-7.879 0,-0.618 0.067,-1.217 0.198,-1.794 -6.385,0.329 -12.046,3.462 -15.838,8.235 -0.663,-1.168 -1.041,-2.523 -1.041,-3.966 0,-2.732 1.357,-5.144 3.418,-6.557 -1.256,0.038 -2.444,0.396 -3.481,0.982 l 0,-0.096 c 0,-3.819 2.648,-7.005 6.167,-7.726 -0.645,-0.185 -1.324,-0.277 -2.025,-0.277 -0.496,0 -0.979,0.047 -1.448,0.139 0.98,-3.129 3.816,-5.409 7.179,-5.469 -2.63,-2.114 -5.944,-3.374 -9.544,-3.374 -0.619,0 -1.232,0.036 -1.833,0.108 3.4,-2.232 7.442,-3.537 11.778,-3.537 14.136,0 21.864,12.004 21.864,22.417 0,0.343 -0.006,0.685 -0.021,1.021 1.502,1.112 2.807,2.498 3.832,4.078 -1.376,-0.626 -2.857,-1.05 -4.412,-1.24 C -1.792,-3.384 -0.574,-1.84 0,0" /></g></g></g></g></svg>