<?xml version="1.0" encoding="UTF-8" standalone="no"?>
<svg
   xmlns:dc="http://purl.org/dc/elements/1.1/"
   xmlns:cc="http://creativecommons.org/ns#"
   xmlns:rdf="http://www.w3.org/1999/02/22-rdf-syntax-ns#"
   xmlns:svg="http://www.w3.org/2000/svg"
   xmlns="http://www.w3.org/2000/svg"
   viewBox="0 0 157.5 90.002502"
   height="90.002502"
   width="157.5"
   xml:space="preserve"
   version="1.1"
   id="svg2"><metadata
     id="metadata8"><rdf:RDF><cc:Work
         rdf:about=""><dc:format>image/svg+xml</dc:format><dc:type
           rdf:resource="http://purl.org/dc/dcmitype/StillImage" /></cc:Work></rdf:RDF></metadata><defs
     id="defs6"><clipPath
       id="clipPath16"
       clipPathUnits="userSpaceOnUse"><path
         id="path18"
         d="M 0,0 126,0 126,72 0,72 0,0 Z" /></clipPath></defs><g
     transform="matrix(1.25,0,0,-1.25,0,90.0025)"
     id="g10"><g
       id="g12"><g
         clip-path="url(#clipPath16)"
         id="g14"><g
           transform="translate(124.5234,7.4971)"
           id="g20"><path
             id="path22"
             style="fill:#ffffff;fill-opacity:1;fill-rule:nonzero;stroke:none"
             d="M 0,0 C -0.152,0.328 -0.293,0.597 -0.426,0.816 -2.598,4.727 -6.75,9.527 -12.875,15.218 l -0.129,0.134 -0.066,0.062 -0.067,0.066 -0.062,0 c -2.781,2.652 -4.543,4.434 -5.281,5.344 -1.348,1.738 -1.653,3.5 -0.915,5.281 0.524,1.348 2.477,4.191 5.868,8.539 1.781,2.301 3.195,4.149 4.234,5.539 7.52,9.996 10.777,16.382 9.777,19.164 l -0.386,0.649 c -0.262,0.39 -0.934,0.75 -2.02,1.074 -1.086,0.327 -2.476,0.383 -4.172,0.163 l -18.773,-0.129 c -0.301,0.106 -0.738,0.099 -1.301,-0.034 -0.566,-0.13 -0.852,-0.195 -0.852,-0.195 l -0.324,-0.165 -0.258,-0.195 c -0.218,-0.129 -0.457,-0.355 -0.718,-0.683 -0.258,-0.325 -0.477,-0.707 -0.649,-1.142 -2.047,-5.257 -4.367,-10.144 -6.976,-14.663 -1.61,-2.695 -3.086,-5.031 -4.434,-7.008 -1.348,-1.976 -2.476,-3.434 -3.387,-4.367 -0.914,-0.934 -1.738,-1.684 -2.476,-2.246 -0.742,-0.567 -1.305,-0.805 -1.696,-0.719 -0.39,0.09 -0.761,0.176 -1.109,0.262 -0.609,0.39 -1.098,0.922 -1.465,1.597 -0.371,0.672 -0.621,1.519 -0.75,2.543 -0.129,1.02 -0.207,1.899 -0.23,2.637 -0.02,0.738 -0.008,1.785 0.035,3.128 0.043,1.349 0.066,2.263 0.066,2.739 0,1.653 0.032,3.446 0.094,5.379 0.067,1.934 0.121,3.465 0.164,4.593 0.043,1.13 0.067,2.325 0.067,3.587 0,1.258 -0.079,2.245 -0.231,2.965 -0.148,0.715 -0.379,1.41 -0.683,2.086 -0.305,0.672 -0.75,1.194 -1.336,1.562 -0.586,0.371 -1.313,0.664 -2.18,0.882 -2.305,0.521 -5.238,0.802 -8.8,0.849 -8.082,0.086 -13.274,-0.438 -15.579,-1.567 -0.915,-0.476 -1.738,-1.129 -2.477,-1.953 -0.78,-0.957 -0.89,-1.48 -0.328,-1.566 2.61,-0.391 4.453,-1.325 5.543,-2.802 l 0.39,-0.784 c 0.306,-0.563 0.61,-1.563 0.912,-2.996 0.304,-1.434 0.5,-3.02 0.585,-4.758 0.219,-3.173 0.219,-5.887 0,-8.149 -0.214,-2.257 -0.421,-4.019 -0.617,-5.277 -0.196,-1.262 -0.488,-2.281 -0.88,-3.066 -0.39,-0.782 -0.651,-1.258 -0.784,-1.434 -0.13,-0.172 -0.239,-0.281 -0.324,-0.324 -0.566,-0.219 -1.152,-0.328 -1.762,-0.328 -0.606,0 -1.344,0.304 -2.216,0.914 -0.866,0.609 -1.769,1.445 -2.702,2.512 -0.933,1.061 -1.988,2.55 -3.164,4.464 -1.173,1.911 -2.386,4.168 -3.649,6.778 l -1.043,1.89 c -0.652,1.215 -1.543,2.985 -2.672,5.313 -1.128,2.324 -2.128,4.57 -2.996,6.745 -0.347,0.911 -0.871,1.606 -1.566,2.087 l -0.324,0.195 c -0.219,0.172 -0.567,0.356 -1.043,0.555 -0.481,0.195 -0.976,0.336 -1.5,0.422 l -17.86,-0.129 c -1.823,0 -3.063,-0.414 -3.714,-1.238 l -0.263,-0.392 c -0.129,-0.218 -0.194,-0.565 -0.194,-1.043 0,-0.48 0.128,-1.065 0.391,-1.761 2.609,-6.125 5.441,-12.035 8.507,-17.726 3.062,-5.696 5.723,-10.278 7.98,-13.754 2.263,-3.477 4.562,-6.758 6.911,-9.84 2.347,-3.086 3.901,-5.063 4.66,-5.934 0.761,-0.871 1.36,-1.519 1.793,-1.953 l 1.629,-1.566 c 1.043,-1.043 2.573,-2.293 4.597,-3.746 2.02,-1.457 4.259,-2.89 6.712,-4.305 2.456,-1.41 5.312,-2.562 8.573,-3.453 3.258,-0.891 6.431,-1.25 9.517,-1.074 l 7.495,0 c 1.52,0.129 2.672,0.61 3.453,1.433 l 0.258,0.324 c 0.176,0.262 0.34,0.665 0.488,1.208 0.153,0.542 0.231,1.14 0.231,1.792 -0.043,1.868 0.098,3.551 0.422,5.051 0.324,1.496 0.695,2.625 1.109,3.387 0.414,0.762 0.879,1.402 1.402,1.922 0.52,0.523 0.891,0.836 1.11,0.945 0.215,0.11 0.387,0.184 0.519,0.231 1.043,0.347 2.27,0.007 3.684,-1.012 1.41,-1.024 2.734,-2.281 3.977,-3.781 1.238,-1.5 2.726,-3.183 4.46,-5.051 1.743,-1.867 3.262,-3.257 4.563,-4.172 l 1.305,-0.781 c 0.871,-0.524 2,-1 3.39,-1.434 1.391,-0.437 2.606,-0.547 3.649,-0.327 l 16.687,0.261 c 1.649,0 2.934,0.273 3.844,0.816 0.914,0.544 1.453,1.141 1.629,1.789 0.176,0.653 0.183,1.391 0.035,2.219 C 0.301,-0.903 0.148,-0.325 0,0" /></g></g></g></g></svg>