<?xml version="1.0" encoding="UTF-8" standalone="no"?>
<svg
   xmlns:dc="http://purl.org/dc/elements/1.1/"
   xmlns:cc="http://creativecommons.org/ns#"
   xmlns:rdf="http://www.w3.org/1999/02/22-rdf-syntax-ns#"
   xmlns:svg="http://www.w3.org/2000/svg"
   xmlns="http://www.w3.org/2000/svg"
   viewBox="0 0 75 75.222122"
   height="75.222122"
   width="75"
   xml:space="preserve"
   version="1.1"
   id="svg2"><metadata
     id="metadata8"><rdf:RDF><cc:Work
         rdf:about=""><dc:format>image/svg+xml</dc:format><dc:type
           rdf:resource="http://purl.org/dc/dcmitype/StillImage" /></cc:Work></rdf:RDF></metadata><defs
     id="defs6"><clipPath
       id="clipPath16"
       clipPathUnits="userSpaceOnUse"><path
         id="path18"
         d="m 0,60.178 60,0 L 60,0 0,0 0,60.178 Z" /></clipPath></defs><g
     transform="matrix(1.25,0,0,-1.25,0,75.222125)"
     id="g10"><g
       id="g12"><g
         clip-path="url(#clipPath16)"
         id="g14"><g
           transform="translate(38.1641,11.6729)"
           id="g20"><path
             id="path22"
             style="fill:#ffffff;fill-opacity:1;fill-rule:evenodd;stroke:none"
             d="m 0,0 c 0.149,-0.27 0.217,-0.584 0.342,-0.87 0.035,-0.08 0.162,-0.192 0.213,-0.177 0.094,0.029 0.224,0.133 0.236,0.219 0.086,0.706 -0.18,1.31 -0.586,1.946 C 0.098,0.701 -0.236,0.423 0,0" /></g><g
           transform="translate(44.8926,8.4575)"
           id="g24"><path
             id="path26"
             style="fill:#ffffff;fill-opacity:1;fill-rule:evenodd;stroke:none"
             d="M 0,0 C 0.28,-0.126 0.561,-0.253 0.84,-0.378 L 1.007,-0.649 C 1.133,-0.318 1.259,0.013 1.348,0.246 1.121,0.294 1.121,0.294 1.098,1.1 0.82,1.19 0.538,1.23 0.609,0.809 0.691,0.31 0.506,0.077 0,0" /></g><g
           transform="translate(48.1885,11.585)"
           id="g28"><path
             id="path30"
             style="fill:#ffffff;fill-opacity:1;fill-rule:evenodd;stroke:none"
             d="M 0,0 0,-1.179 C 0.072,-1.38 0.165,-1.65 0.268,-1.917 0.284,-1.96 0.343,-2.011 0.386,-2.013 0.437,-2.016 0.507,-1.984 0.542,-1.944 0.73,-1.731 0.603,-0.966 0.387,-0.765 0.278,-0.663 0.221,-0.492 0.175,-0.341 0.143,-0.235 0.169,-0.112 0.169,0.004 0.112,0.002 0.056,0.001 0,0" /></g><g
           transform="translate(47.752,8.417)"
           id="g32"><path
             id="path34"
             style="fill:#ffffff;fill-opacity:1;fill-rule:evenodd;stroke:none"
             d="M 0,0 C 0.329,0.174 0.658,0.348 0.986,0.521 0.535,0.378 0.72,0.889 0.609,0.939 0.375,0.633 0.168,0.364 -0.039,0.094 -0.025,0.062 -0.013,0.032 0,0" /></g><g
           transform="translate(40.2627,5.1338)"
           id="g36"><path
             id="path38"
             style="fill:#ffffff;fill-opacity:1;fill-rule:evenodd;stroke:none"
             d="M 0,0 C 0.003,-0.045 0.007,-0.089 0.011,-0.133 0.196,-0.257 0.384,-0.381 0.718,-0.602 0.69,-0.321 0.71,-0.025 0.652,-0.01 0.448,0.044 0.22,0.005 0,0" /></g><g
           transform="translate(44.8691,5.8423)"
           id="g40"><path
             id="path42"
             style="fill:#ffffff;fill-opacity:1;fill-rule:evenodd;stroke:none"
             d="M 0,0 C 0.398,0.131 0.796,0.262 1.193,0.393 1.174,0.452 1.154,0.512 1.135,0.571 0.731,0.456 0.328,0.338 -0.074,0.222 -0.049,0.148 -0.024,0.074 0,0" /></g><g
           transform="translate(41.5039,5.0239)"
           id="g44"><path
             id="path46"
             style="fill:#ffffff;fill-opacity:1;fill-rule:evenodd;stroke:none"
             d="M 0,0 C 0.309,-0.184 0.651,-0.095 0.986,-0.073 0.992,-0.012 0.999,0.05 1.006,0.11 0.676,0.131 0.347,0.152 0.018,0.174 0.012,0.116 0.006,0.058 0,0" /></g><g
           transform="translate(39.5078,7.4365)"
           id="g48"><path
             id="path50"
             style="fill:#ffffff;fill-opacity:1;fill-rule:evenodd;stroke:none"
             d="M 0,0 C -0.141,-0.339 -0.25,-0.6 -0.367,-0.876 0.137,-0.942 0.056,-0.472 0.209,-0.234 0.225,-0.208 0.066,-0.071 0,0" /></g><g
           transform="translate(49.2793,47.3711)"
           id="g52"><path
             id="path54"
             style="fill:#ffffff;fill-opacity:1;fill-rule:evenodd;stroke:none"
             d="M 0,0 C 0.43,0.424 0.57,0.966 0.635,1.602 0.344,1.381 -0.024,1.371 -0.09,0.967 -0.133,0.709 -0.254,0.464 -0.32,0.208 -0.339,0.137 -0.313,-0.005 -0.271,-0.021 -0.193,-0.051 -0.053,-0.051 0,0" /></g><g
           transform="translate(52.3008,41.6987)"
           id="g56"><path
             id="path58"
             style="fill:#ffffff;fill-opacity:1;fill-rule:evenodd;stroke:none"
             d="M 0,0 C 0.258,0.153 0.516,0.307 0.697,0.415 0.572,0.567 0.572,0.567 0.979,1.115 0.844,1.321 0.677,1.496 0.502,1.179 0.295,0.803 0.048,0.746 -0.328,0.961 -0.209,0.73 -0.089,0.499 0.031,0.268 0.021,0.178 0.01,0.089 0,0" /></g><g
           transform="translate(55.1465,41.4277)"
           id="g60"><path
             id="path62"
             style="fill:#ffffff;fill-opacity:1;fill-rule:evenodd;stroke:none"
             d="M 0,0 C 0.238,0.042 0.555,0.619 0.518,0.866 0.499,0.991 0.551,1.135 0.6,1.259 0.634,1.346 0.716,1.415 0.777,1.492 0.738,1.521 0.701,1.549 0.662,1.578 0.463,1.326 0.264,1.074 0.043,0.795 -0.016,0.622 -0.096,0.393 -0.168,0.163 -0.18,0.125 -0.166,0.06 -0.141,0.037 -0.107,0.007 -0.045,-0.008 0,0" /></g><g
           transform="translate(54.752,41.4321)"
           id="g64"><path
             id="path66"
             style="fill:#ffffff;fill-opacity:1;fill-rule:evenodd;stroke:none"
             d="m 0,0 c -0.316,-0.08 -0.597,-0.15 -0.876,-0.22 -0.007,-0.028 -0.016,-0.056 -0.023,-0.084 0.309,-0.057 0.62,-0.115 0.93,-0.172 C -0.345,-0.334 0.047,-0.09 0,0" /></g><g
           transform="translate(49.0869,33.147)"
           id="g68"><path
             id="path70"
             style="fill:#ffffff;fill-opacity:1;fill-rule:evenodd;stroke:none"
             d="M 0,0 C -0.038,0.167 -0.118,0.324 -0.2,0.476 -0.209,0.494 -0.353,0.471 -0.394,0.428 -0.423,0.398 -0.399,0.298 -0.374,0.238 -0.32,0.103 -0.251,-0.026 -0.161,-0.213 -0.101,-0.137 0.012,-0.055 0,0" /></g><g
           transform="translate(47.8701,44.5488)"
           id="g72"><path
             id="path74"
             style="fill:#ffffff;fill-opacity:1;fill-rule:evenodd;stroke:none"
             d="M 0,0 C 0.024,0.008 -0.01,0.183 -0.016,0.265 -0.288,0.114 -0.497,-0.002 -0.72,-0.125 -0.421,-0.434 -0.228,-0.078 0,0" /></g><g
           transform="translate(46.7617,36.439)"
           id="g76"><path
             id="path78"
             style="fill:#ffffff;fill-opacity:1;fill-rule:evenodd;stroke:none"
             d="M 0,0 C -0.028,-0.384 -0.057,-0.768 -0.085,-1.152 -0.041,-1.156 0.004,-1.159 0.049,-1.163 0.08,-0.774 0.11,-0.387 0.141,0.001 0.094,0 0.047,0 0,0" /></g><g
           transform="translate(56.1611,44.1689)"
           id="g80"><path
             id="path82"
             style="fill:#ffffff;fill-opacity:1;fill-rule:evenodd;stroke:none"
             d="M 0,0 C -0.015,0.306 -0.028,0.612 -0.043,0.918 -0.085,0.914 -0.126,0.91 -0.167,0.906 -0.144,0.601 -0.118,0.295 -0.094,-0.011 -0.063,-0.007 -0.032,-0.004 0,0" /></g><g
           transform="translate(27.4668,47.5879)"
           id="g84"><path
             id="path86"
             style="fill:#ffffff;fill-opacity:1;fill-rule:evenodd;stroke:none"
             d="M 0,0 C -0.001,0.632 0.258,1.261 0.707,1.727 1.158,2.193 1.75,2.45 2.371,2.45 L 2.523,2.446 2.665,2.449 c 1.283,0 2.369,-1.133 2.372,-2.474 0,-0.64 -0.282,-1.306 -0.758,-1.782 -0.327,-0.327 -0.896,-0.718 -1.755,-0.718 -0.054,0 -0.11,10e-4 -0.166,0.004 C 1.037,-2.445 0.002,-1.338 0,0 m 2.524,-6.055 c 1.613,0 3.124,0.623 4.253,1.755 1.139,1.141 1.791,2.701 1.789,4.281 C 8.561,3.289 5.912,5.979 2.665,5.979 L 2.546,5.977 C 0.887,6.019 -0.666,5.383 -1.829,4.181 -2.928,3.046 -3.531,1.56 -3.529,-0.004 c 0.004,-3.206 2.502,-5.859 5.687,-6.04 0.123,-0.007 0.247,0.018 0.366,-0.011" /></g><g
           transform="translate(6.8799,9.4287)"
           id="g88"><path
             id="path90"
             style="fill:#ffffff;fill-opacity:1;fill-rule:evenodd;stroke:none"
             d="m 0,0 c -0.13,-0.573 -0.329,-1.126 -0.354,-1.688 -0.017,-0.378 0.212,-0.767 0.333,-1.15 0.237,0.24 0.473,0.48 0.731,0.74 C 1.29,-2.642 1.946,-3.255 2.602,-3.87 2.273,-2.201 1.644,-0.787 0,0" /></g><g
           transform="translate(24.7246,20.0732)"
           id="g92"><path
             id="path94"
             style="fill:#ffffff;fill-opacity:1;fill-rule:evenodd;stroke:none"
             d="m 0,0 0,-2.709 c 0.166,-0.466 0.379,-1.087 0.616,-1.7 0.038,-0.099 0.175,-0.217 0.271,-0.222 0.119,-0.005 0.278,0.067 0.359,0.159 0.435,0.489 0.141,2.25 -0.356,2.713 C 0.639,-1.525 0.508,-1.131 0.402,-0.785 0.328,-0.542 0.388,-0.257 0.388,0.009 0.259,0.006 0.129,0.003 0,0" /></g><g
           transform="translate(6.793,44.0776)"
           id="g96"><path
             id="path98"
             style="fill:#ffffff;fill-opacity:1;fill-rule:evenodd;stroke:none"
             d="M 0,0 C -0.145,0.206 -0.523,0.301 -0.806,0.329 -0.92,0.34 -1.111,0.053 -1.187,-0.132 -1.43,-0.728 -1.634,-1.339 -1.912,-2.109 c 0.543,0.148 0.903,0.234 1.257,0.344 C 0.037,-1.551 0.422,-0.596 0,0" /></g><g
           transform="translate(3.6367,26.9277)"
           id="g100"><path
             id="path102"
             style="fill:#ffffff;fill-opacity:1;fill-rule:evenodd;stroke:none"
             d="m 0,0 c -1.037,-0.331 -0.614,0.847 -0.867,0.959 -0.539,-0.702 -1.016,-1.322 -1.492,-1.942 0.03,-0.073 0.06,-0.145 0.091,-0.218 C -1.512,-0.8 -0.756,-0.4 0,0" /></g><g
           transform="translate(3.4375,1.4023)"
           id="g104"><path
             id="path106"
             style="fill:#ffffff;fill-opacity:1;fill-rule:evenodd;stroke:none"
             d="m 0,0 c -0.049,0.021 -0.316,-0.268 -0.332,-0.428 -0.011,-0.114 0.209,-0.288 0.36,-0.375 0.343,-0.195 0.708,-0.352 1.215,-0.599 0,0.263 0.1,0.629 -0.018,0.724 C 0.864,-0.388 0.428,-0.186 0,0" /></g><g
           transform="translate(19.457,29.4189)"
           id="g108"><path
             id="path110"
             style="fill:#ffffff;fill-opacity:1;fill-rule:evenodd;stroke:none"
             d="m 0,0 c -0.298,-0.127 -0.529,-0.405 -0.779,-0.61 0.291,-0.12 0.583,-0.321 0.886,-0.34 0.25,-0.015 0.567,0.13 0.748,0.311 0.1,0.099 0.042,0.569 -0.052,0.608 C 0.564,0.066 0.229,0.098 0,0" /></g><g
           transform="translate(21.6348,24.7891)"
           id="g112"><path
             id="path114"
             style="fill:#ffffff;fill-opacity:1;fill-rule:evenodd;stroke:none"
             d="m 0,0 c 0.566,-0.61 1.133,-1.219 1.699,-1.829 0.061,0.06 0.12,0.121 0.181,0.181 C 1.335,-1.021 0.79,-0.394 0.244,0.233 0.163,0.155 0.081,0.078 0,0" /></g><g
           transform="translate(9.8398,30.0801)"
           id="g116"><path
             id="path118"
             style="fill:#ffffff;fill-opacity:1;fill-rule:evenodd;stroke:none"
             d="M 0,0 C -0.02,0.018 -0.036,0.033 -0.055,0.05 -0.061,0.031 -0.064,0.013 -0.07,-0.006 -0.048,-0.004 -0.021,-0.002 0,0" /></g><g
           transform="translate(34.6758,2.4595)"
           id="g120"><path
             id="path122"
             style="fill:#ffffff;fill-opacity:1;fill-rule:evenodd;stroke:none"
             d="m 0,0 c -0.77,-0.051 -1.557,-0.255 -2.27,0.169 0.014,0.133 0.028,0.266 0.041,0.398 L 0.045,0.422 C 0.029,0.281 0.016,0.142 0,0 m -5.101,0.115 c -0.006,0.102 -0.014,0.203 -0.022,0.305 0.506,0.012 1.032,0.104 1.501,-0.022 0.131,-0.035 0.088,-0.716 0.149,-1.361 -0.768,0.508 -1.198,0.793 -1.628,1.078 m -24.868,0.546 3.071,0 c -1.405,-0.804 -2.443,-0.818 -3.071,0 M 6.976,47.75 C 6.524,48.288 6.074,48.826 5.541,49.464 6.904,49.637 7.222,49.308 6.976,47.75 M 8.955,40.062 C 8.957,39.939 8.959,39.813 8.962,39.704 8.9,39.69 8.848,39.695 8.801,39.708 c 0.052,0.118 0.102,0.236 0.154,0.354 M 25.176,5.025 c -0.578,2.218 -1.171,4.432 -1.764,6.646 -0.215,0.8 -0.428,1.6 -0.642,2.401 -0.174,-0.583 -0.427,-1.107 -1.389,-0.982 0.322,0.767 0.63,1.501 1.009,2.406 -0.537,2.023 -1.072,4.047 -1.606,6.071 -0.348,1.319 -0.696,2.638 -1.046,3.956 -0.115,0.104 -0.221,0.231 -0.269,0.34 -0.376,0.86 -0.579,1.807 -1.031,2.619 -0.4,0.721 -0.251,1.301 0.011,1.897 -0.605,2.282 -1.209,4.564 -1.83,6.841 -0.117,0.432 -0.293,0.821 -0.505,1.176 0.264,-0.096 0.528,-0.192 0.792,-0.289 0.018,0.05 0.035,0.1 0.055,0.15 -0.33,0.135 -0.659,0.269 -0.988,0.404 -0.003,-0.008 -0.006,-0.015 -0.008,-0.023 -0.775,1.125 -2.018,1.787 -3.496,1.787 l -0.073,0 C 11.584,40.413 10.773,40.412 9.965,40.41 9.451,39.435 9.344,38.333 9.834,36.975 c 0.012,-0.033 0.01,-0.063 0.02,-0.096 0.866,0.002 1.731,0.004 2.615,0.017 0.359,0 0.609,-0.101 0.745,-0.603 0.098,-0.36 0.191,-0.721 0.289,-1.081 -0.062,-0.035 -0.12,-0.077 -0.183,-0.109 -0.367,-0.189 -0.596,-0.052 -0.62,0.365 -0.004,0.073 -0.008,0.145 -0.011,0.208 -0.117,0.035 -0.23,0.11 -0.299,0.08 -0.102,-0.042 -0.173,-0.16 -0.257,-0.245 0.279,-0.269 0.192,-0.553 0.043,-0.844 -0.012,-0.026 0.026,-0.078 0.066,-0.187 0.067,0.176 0.106,0.277 0.171,0.453 0.107,-0.164 0.175,-0.277 0.249,-0.385 0.143,-0.203 0.425,-0.208 0.498,0.008 0.081,0.246 0.217,0.394 0.388,0.487 0.663,-2.453 1.318,-4.907 1.97,-7.364 l 0.343,-1.3 c 0.505,-1.904 1.008,-3.808 1.51,-5.712 0.541,-2.049 1.082,-4.098 1.625,-6.146 0.334,-1.255 0.67,-2.51 1.006,-3.764 C 20.594,8.551 21.186,6.346 21.76,4.138 21.825,3.883 21.791,3.649 21.748,3.597 20.588,3.14 19.657,2.859 18.818,2.713 16.785,2.358 14.645,2.065 12.457,1.843 11.012,1.694 9.51,1.625 8.056,1.559 L 6.887,1.503 C 6.131,1.466 5.375,1.447 4.619,1.426 4.142,1.414 3.664,1.401 3.183,1.384 2.971,1.377 2.785,1.334 2.629,1.282 l -14.752,0 c -0.15,0.051 -0.33,0.093 -0.533,0.102 -0.451,0.022 -0.902,0.04 -1.352,0.057 -0.459,0.019 -0.919,0.037 -1.379,0.06 l -0.906,0.042 c -1.063,0.05 -2.128,0.1 -3.19,0.18 l -0.385,0.028 c -1.429,0.106 -2.905,0.216 -4.319,0.408 -1.696,0.233 -3.506,0.534 -5.868,0.977 -0.716,0.135 -0.975,0.319 -1.091,0.489 l 0,0.493 c 0.015,0.044 0.031,0.09 0.042,0.138 l 0.383,1.489 c 0.155,0.601 0.311,1.2 0.467,1.799 -0.164,0.033 -0.328,0.066 -0.49,0.098 0.23,0.687 0.463,1.101 0.854,1.286 0.374,1.403 0.75,2.805 1.126,4.208 0.364,1.35 0.726,2.699 1.086,4.05 0.343,1.286 0.683,2.574 1.023,3.862 0.333,1.26 0.665,2.52 1.001,3.78 0.248,0.929 0.498,1.858 0.748,2.787 -0.399,-0.037 -0.906,-0.083 -1.691,-0.155 0.367,0.54 0.547,0.805 0.742,1.09 0.33,-0.301 0.632,-0.578 0.964,-0.88 0.063,0.234 0.125,0.468 0.188,0.702 0.625,2.314 1.269,4.707 1.875,7.074 0.371,1.451 0.371,1.451 1.588,1.451 l 0.23,-0.002 c 1.656,-0.037 3.315,-0.028 4.972,-0.019 0.67,0.004 1.341,0.008 2.009,0.008 0.152,0 0.305,0.012 0.468,0.027 l 2.065,0.149 c -0.924,1.05 -0.937,2.623 -1.906,3.655 -0.178,0.188 -0.067,0.646 -0.089,0.979 0.091,0.024 0.182,0.047 0.272,0.071 -0.57,1.386 -0.77,2.833 -0.582,4.326 -0.115,0.024 -0.231,0.049 -0.347,0.074 l 0,1.378 c 0.194,-0.088 0.388,-0.176 0.583,-0.264 0.833,3.284 2.842,5.434 6.152,6.552 0.308,0.104 0.656,0.185 1.026,0.271 0.121,0.028 0.244,0.057 0.366,0.087 l 2.405,0 c 0.106,-0.036 0.219,-0.064 0.335,-0.081 2.469,-0.345 4.462,-1.534 5.923,-3.534 C 4.5,48.031 4.949,45.234 3.977,42.262 3.778,41.656 3.476,41.039 3.155,40.386 2.99,40.05 2.826,39.715 2.673,39.377 L 1.539,36.883 4.465,36.879 c -0.395,0.351 -0.92,0.587 -1.641,0.655 0.066,0.599 -0.021,1.281 0.247,1.768 0.183,0.332 0.861,0.391 1.429,0.617 0.209,-0.238 0.449,-0.514 0.69,-0.787 1.348,-1.517 2.636,-1.388 3.489,0.336 0.072,-0.076 0.138,-0.169 0.198,-0.283 0.128,0.094 0.311,0.159 0.35,0.273 0.05,0.145 -0.004,0.332 -0.039,0.495 -0.025,0.112 -0.093,0.214 -0.141,0.32 0.018,0.044 0.038,0.087 0.057,0.131 -0.056,0 -0.112,-0.001 -0.167,-0.001 l -1.885,0.004 c 0.1,0.246 0.194,0.498 0.279,0.758 1.326,4.055 0.69,8.028 -1.839,11.491 -1.789,2.448 -4.25,4.058 -7.142,4.724 -0.008,-0.08 -0.018,-0.16 -0.026,-0.24 -1.422,-0.096 -2.879,-0.472 -4.196,0.311 0.01,0.089 0.018,0.178 0.028,0.267 l -0.613,0 -0.214,-0.054 C -6.843,57.62 -7.016,57.58 -7.189,57.54 c -0.328,-0.077 -0.666,-0.163 -1.014,-0.265 0.039,-0.491 0.04,-1.212 0.107,-1.917 -0.784,0.519 -1.375,0.91 -1.883,1.246 -3.689,-1.681 -6.126,-4.664 -7.08,-8.712 -0.606,-2.568 -0.404,-5.118 0.575,-7.489 -1.483,-0.007 -2.965,-0.012 -4.449,0.02 l -0.307,0.004 c -3.312,0 -4.344,-1.507 -5.008,-4.108 -0.138,-0.539 -0.283,-1.082 -0.424,-1.623 0.043,-0.639 0.133,-1.283 0.221,-2.107 l -0.774,0 c -0.295,-1.108 -0.593,-2.213 -0.885,-3.298 -0.32,-1.185 -0.639,-2.37 -0.954,-3.554 -0.336,-1.262 -0.67,-2.526 -1.004,-3.788 -0.338,-1.285 -0.678,-2.57 -1.021,-3.854 -0.359,-1.348 -0.722,-2.696 -1.083,-4.043 -0.101,-0.38 -0.203,-0.76 -0.305,-1.14 0.183,-0.344 0.196,-0.938 0.024,-1.834 -0.104,0.253 -0.207,0.505 -0.313,0.756 -0.233,-0.873 -0.468,-1.747 -0.701,-2.62 -0.195,-0.734 -0.383,-1.469 -0.571,-2.204 0.245,-0.227 0.475,-0.438 0.705,-0.649 -0.069,-0.077 -0.139,-0.153 -0.208,-0.231 -0.24,0.03 -0.477,0.067 -0.689,0.136 l -0.181,-0.704 -0.265,-0.288 0,-2.299 0.093,-0.275 c 0.552,-1.633 1.855,-2.653 3.876,-3.033 2.423,-0.455 4.285,-0.763 6.043,-1.005 1.521,-0.206 3.053,-0.321 4.535,-0.431 l 0.383,-0.028 c 1.094,-0.082 2.191,-0.134 3.289,-0.185 l 0.896,-0.043 c 0.471,-0.022 0.942,-0.042 1.413,-0.06 0.323,-0.013 0.646,-0.027 0.972,-0.04 l 0.253,-0.123 16.347,0 0.244,0.118 c 0.349,0.01 0.697,0.019 1.045,0.028 0.782,0.02 1.564,0.042 2.348,0.08 l 1.157,0.055 c 1.503,0.069 3.055,0.139 4.598,0.299 0.224,0.022 0.446,0.048 0.668,0.073 0.407,0.764 1.196,0.317 1.96,0.233 0.243,0.031 0.488,0.06 0.728,0.092 0.144,0.068 0.282,0.174 0.41,0.33 -0.359,0.437 -0.771,0.938 -1.183,1.438 0.052,0.114 0.103,0.226 0.156,0.339 0.372,-0.191 0.791,-0.326 1.107,-0.586 0.452,-0.373 1.008,-0.771 1.192,-1.275 0.529,0.083 1.053,0.169 1.571,0.26 1.081,0.188 2.23,0.53 3.619,1.078 2.091,0.826 2.57,3.02 2.132,4.711" /></g></g></g></g></svg>