<?xml version="1.0" encoding="UTF-8" standalone="no"?>
<svg
   xmlns:dc="http://purl.org/dc/elements/1.1/"
   xmlns:cc="http://creativecommons.org/ns#"
   xmlns:rdf="http://www.w3.org/1999/02/22-rdf-syntax-ns#"
   xmlns:svg="http://www.w3.org/2000/svg"
   xmlns="http://www.w3.org/2000/svg"
   viewBox="0 0 122.83075 92.896751"
   height="92.896751"
   width="122.83075"
   xml:space="preserve"
   version="1.1"
   id="svg2"><metadata
     id="metadata8"><rdf:RDF><cc:Work
         rdf:about=""><dc:format>image/svg+xml</dc:format><dc:type
           rdf:resource="http://purl.org/dc/dcmitype/StillImage" /></cc:Work></rdf:RDF></metadata><defs
     id="defs6"><clipPath
       id="clipPath16"
       clipPathUnits="userSpaceOnUse"><path
         id="path18"
         d="m 0,74.317 98.265,0 L 98.265,0 0,0 0,74.317 Z" /></clipPath></defs><g
     transform="matrix(1.25,0,0,-1.25,0,92.89675)"
     id="g10"><g
       id="g12"><g
         clip-path="url(#clipPath16)"
         id="g14"><g
           transform="translate(70.0977,41.4404)"
           id="g20"><path
             id="path22"
             style="fill:#e55028;fill-opacity:1;fill-rule:nonzero;stroke:none"
             d="m 0,0 c -0.951,-1.28 -2.524,-2.065 -4.392,-2.152 -2.69,-0.125 -3.996,2.211 -4.226,7.179 -0.196,4.222 0.7,12.311 0.554,15.449 l -0.104,2.241 c -0.896,-0.041 -5.062,-17.53 -7.315,-20.628 -0.664,-1.004 -1.784,-1.918 -3.165,-1.982 -3.175,-0.147 -5.362,3.42 -5.619,8.949 -0.168,3.625 0.495,10.318 0.142,17.936 -0.039,0.824 -0.203,1.153 -0.352,1.146 -2.989,-0.139 -9.656,-20.25 -9.976,-30.298 -0.044,-1.463 0.22,-3.921 0.578,-5.215 -3.604,0.244 -7.462,0.29 -7.63,3.914 -0.155,3.324 1.576,10.404 3.644,16.679 1.444,4.371 7.037,19.38 12.939,19.653 6.537,0.304 5.775,-11.524 6.294,-22.693 0.083,-1.791 0.144,-3.101 0.375,-4.064 6.137,17.805 7.278,23.063 10.939,23.232 2.093,0.097 3.716,-2.635 3.886,-6.296 C -3.329,20.921 -3.354,16.615 -3.232,14 -2.687,2.232 -1.471,2.663 0,0" /></g><g
           transform="translate(90.0977,58.627)"
           id="g24"><path
             id="path26"
             style="fill:#e55028;fill-opacity:1;fill-rule:nonzero;stroke:none"
             d="m 0,0 c -0.048,-2.364 -6.179,-11.961 -12.002,-11.842 -3.203,0.067 -4.799,2.139 -4.744,4.866 0.049,2.366 1.19,4.746 2.058,6.295 -5.587,0.952 -6.261,3.551 -6.231,5.006 0.059,2.911 2.857,4.384 4.64,4.348 1.419,-0.029 1.832,-1.202 1.816,-1.968 -0.018,-0.872 -0.402,-1.921 -1.013,-3.181 2.754,-0.677 7.269,-0.732 7.225,-2.881 -0.04,-1.964 -3.348,-5.211 -3.402,-7.869 -0.02,-0.981 0.404,-1.536 1.17,-1.551 3.056,-0.063 6.985,6.847 8.765,10.234 C -0.448,1.212 0.015,0.727 0,0" /></g><g
           transform="translate(94.0327,32.876)"
           id="g28"><path
             id="path30"
             style="fill:#f9b43b;fill-opacity:1;fill-rule:nonzero;stroke:none"
             d="m 0,0 c -0.035,-1.723 -4.502,-8.716 -8.746,-8.629 -2.334,0.048 -3.497,1.558 -3.456,3.546 0.035,1.725 0.867,3.457 1.5,4.587 -4.072,0.693 -4.563,2.588 -4.541,3.647 0.043,2.121 2.082,3.195 3.381,3.168 1.034,-0.021 1.334,-0.876 1.323,-1.433 -0.013,-0.636 -0.293,-1.4 -0.737,-2.319 2.005,-0.494 5.295,-0.533 5.263,-2.098 -0.029,-1.433 -2.439,-3.797 -2.478,-5.734 -0.015,-0.715 0.295,-1.12 0.852,-1.131 2.227,-0.046 5.09,4.99 6.387,7.458 C -0.327,0.883 0.011,0.529 0,0" /></g><g
           transform="translate(94.7148,15.4082)"
           id="g32"><path
             id="path34"
             style="fill:#f9b43b;fill-opacity:1;fill-rule:nonzero;stroke:none"
             d="m 0,0 c -0.028,-1.357 -3.547,-6.866 -6.89,-6.798 -1.838,0.038 -2.755,1.228 -2.723,2.794 0.028,1.357 0.683,2.724 1.181,3.613 -3.207,0.545 -3.594,2.038 -3.577,2.873 0.035,1.671 1.641,2.516 2.664,2.496 0.815,-0.017 1.052,-0.69 1.043,-1.13 C -8.313,3.349 -8.533,2.745 -8.884,2.022 -7.303,1.633 -4.711,1.603 -4.736,0.367 -4.76,-0.76 -6.659,-2.622 -6.69,-4.149 c -0.011,-0.562 0.232,-0.881 0.672,-0.89 1.754,-0.036 4.01,3.932 5.032,5.876 C -0.257,0.694 0.009,0.417 0,0" /></g><g
           transform="translate(88.9131,48.6328)"
           id="g36"><path
             id="path38"
             style="fill:#8bc334;fill-opacity:1;fill-rule:nonzero;stroke:none"
             d="M 0,0 C 0.041,1.983 2.2,3.441 4.765,3.389 7.377,3.336 9.384,2.081 9.351,0.486 9.298,-2.079 6.681,-4.639 4.068,-4.586 1.455,-4.532 -0.031,-1.5 0,0" /></g><g
           transform="translate(50.9028,5.8369)"
           id="g40"><path
             id="path42"
             style="fill:#f9b43b;fill-opacity:1;fill-rule:nonzero;stroke:none"
             d="M 0,0 C 0.025,1.241 1.375,2.152 2.979,2.119 4.612,2.086 5.867,1.302 5.847,0.305 5.814,-1.299 4.177,-2.899 2.543,-2.866 0.909,-2.832 -0.02,-0.937 0,0" /></g><g
           transform="translate(30.2178,27.5156)"
           id="g44"><path
             id="path46"
             style="fill:#e55028;fill-opacity:1;fill-rule:nonzero;stroke:none"
             d="M 0,0 C 0.025,1.241 1.375,2.152 2.979,2.119 4.612,2.086 5.867,1.302 5.847,0.304 5.814,-1.299 4.177,-2.899 2.543,-2.866 0.909,-2.833 -0.02,-0.937 0,0" /></g><g
           transform="translate(60.5283,18.3262)"
           id="g48"><path
             id="path50"
             style="fill:#f9b43b;fill-opacity:1;fill-rule:nonzero;stroke:none"
             d="m 0,0 c -0.062,-2.992 -2.562,-6.684 -8.605,-6.56 -3.441,0.071 -5.893,1.707 -5.857,3.445 0.011,0.508 0.35,0.98 0.894,1.297 0.917,-0.556 2.043,-1.149 4.196,-1.193 3.382,-0.069 4.956,2.262 5.004,4.596 0.046,2.273 -1.326,3.92 -3.36,4.021 -1.735,0.037 -3.322,0.038 -4.502,-0.626 -0.981,0.349 -1.446,1.047 -1.433,1.706 0.026,1.256 1.054,1.744 2.371,1.717 0.568,-0.011 1.165,-0.113 1.759,-0.275 2.111,0.735 5.241,3.005 5.307,6.237 0.057,2.751 -2.273,4.477 -6.132,4.556 -0.809,0.016 -1.648,-0.057 -2.518,-0.158 0.202,-0.334 0.315,-0.666 0.309,-0.994 -3.89,-7.224 -4.585,-22.177 -1.9,-26.931 -0.398,-0.442 -2.318,-0.642 -3.185,-0.624 -2.154,0.044 -3.535,1.33 -3.762,3.43 -0.853,6.542 1.331,16.736 3.201,21.785 0.256,0.803 0.539,1.456 0.85,2.049 -1.419,-0.599 -2.662,-1.383 -3.577,-2.231 -0.982,0.288 -1.658,0.932 -1.645,1.56 0.004,0.209 0.068,0.387 0.191,0.595 0.684,1.153 5.832,4.1 12.625,3.961 C -0.943,21.182 1.49,17.181 1.436,14.548 1.358,10.749 -2.738,8.077 -5.809,7.213 -1.908,6.234 0.062,3.021 0,0" /></g><g
           transform="translate(84.269,32.3936)"
           id="g52"><path
             id="path54"
             style="fill:#f9b43b;fill-opacity:1;fill-rule:nonzero;stroke:none"
             d="m 0,0 c -0.025,-1.235 -4.68,-9.245 -9.137,-9.153 -1.821,0.037 -2.972,1.038 -3.353,3.129 -1.301,-1.569 -3.055,-3.029 -5.007,-2.989 -2.277,0.047 -3.386,1.501 -3.33,4.235 0.023,1.104 0.296,3.311 0.343,5.556 0.029,1.461 -0.02,2.214 -0.226,3.291 0.946,0.143 1.86,0.287 2.771,0.269 1.593,-0.032 2.261,-0.827 2.224,-2.649 -0.022,-1.074 -0.368,-3.669 -0.405,-5.46 -0.026,-1.236 0.191,-1.726 0.55,-1.734 0.487,-0.01 1.774,0.809 3.016,2.703 0.127,1.398 0.32,2.858 0.346,4.094 0.023,1.171 -0.057,2.052 -0.242,2.574 0.556,0.088 1.208,0.172 1.794,0.159 2.082,-0.042 3.003,-1.133 2.95,-3.704 -0.017,-0.845 -0.453,-3.083 -0.485,-4.644 -0.031,-1.496 0.149,-2.216 0.735,-2.228 1.106,-0.022 4.277,3.882 5.821,7.722 C -0.85,1.385 0.021,1.009 0,0" /></g><g
           transform="translate(67.2197,8.2598)"
           id="g56"><path
             id="path58"
             style="fill:#f9b43b;fill-opacity:1;fill-rule:nonzero;stroke:none"
             d="M 0,0 C -1.606,-1.877 -2.63,-4.014 -2.671,-5.999 -2.682,-6.514 -2.566,-6.857 -2.272,-6.863 -1.146,-6.887 -0.306,-2.982 0,0 M 9.982,5.163 C 7.726,5.086 5.479,4.25 3.518,3.016 L 3.503,2.305 C 3.423,-1.589 1.839,-8.345 -2.35,-8.259 c -1.739,0.035 -2.698,1.084 -2.661,2.898 0.058,2.818 2.301,5.809 5.19,8.077 0.003,0.172 0.006,0.319 -0.016,0.444 -0.85,-0.867 -1.79,-1.288 -2.795,-1.267 -1.666,0.034 -2.598,1.18 -2.558,3.115 0.06,2.941 3.23,5.743 6.268,5.68 C 2.082,10.668 3.077,10.254 3.061,9.445 3.048,8.833 2.403,8.455 1.075,8.141 0.91,8.559 0.693,8.735 0.474,8.739 -0.58,8.761 -1.901,6.46 -1.934,4.893 -1.948,4.206 -1.757,3.934 -1.463,3.928 -0.826,3.914 0.233,5.388 -0.107,6.717 1.085,7.478 1.403,7.471 1.868,7.462 2.898,7.44 3.349,6.745 3.481,4.83 5.388,5.795 7.36,6.368 9.026,6.334 9.639,6.321 10.169,5.943 9.982,5.163" /></g><g
           transform="translate(77.0557,13.4746)"
           id="g60"><path
             id="path62"
             style="fill:#f9b43b;fill-opacity:1;fill-rule:nonzero;stroke:none"
             d="M 0,0 C -0.01,-0.467 0.005,-0.907 0.071,-1.301 0.846,-0.507 1.453,0.411 1.476,1.538 1.487,2.077 1.3,2.448 1.079,2.453 0.614,2.463 0.025,1.249 0,0 M 10.667,0.32 C 10.642,-0.855 6.545,-7.021 1.99,-6.928 -1.464,-6.857 -3.914,-4.405 -3.845,-1.049 -3.779,2.186 -1.668,4.714 0.977,4.66 2.864,4.621 3.966,3.398 3.925,1.39 3.88,-0.767 2.207,-2.325 0.74,-3.299 1.214,-4.093 1.892,-4.549 2.724,-4.565 4.61,-4.604 7.132,-2.303 9.041,1.113 10.027,1.412 10.683,1.13 10.667,0.32" /></g><g
           transform="translate(0.0039,44.9727)"
           id="g64"><path
             id="path66"
             style="fill:#e55028;fill-opacity:1;fill-rule:evenodd;stroke:none"
             d="M 0,0 -0.001,0 C -0.002,-0.002 -0.003,-0.002 -0.004,-0.005 L 0,0 Z" /></g><g
           transform="translate(16.5908,22.8398)"
           id="g68"><path
             id="path70"
             style="fill:#e55028;fill-opacity:1;fill-rule:evenodd;stroke:none"
             d="M 0,0 C 0.337,0.337 0.674,0.673 1.104,1.103 1.22,0.267 1.082,-0.388 0.7,-1.001 0.645,-1.119 0.589,-1.235 0.536,-1.352 0.428,-1.691 0.203,-1.928 -0.096,-2.105 -0.163,-2.151 -0.232,-2.199 -0.301,-2.246 -0.42,-2.321 -0.542,-2.395 -0.662,-2.468 c -0.079,-0.02 -0.158,-0.038 -0.237,-0.056 0.008,-0.12 0.015,-0.24 0.024,-0.36 1.227,-0.24 2.441,-0.3 3.627,0.206 1.135,0.484 1.829,1.463 2.631,2.318 0.106,0.254 0.296,0.422 0.524,0.561 0.157,0.274 0.365,0.497 0.645,0.646 0.177,0.27 0.427,0.451 0.722,0.569 0.478,0.575 1.177,0.62 1.832,0.776 C 9.023,2.896 8.208,2.835 7.92,3.327 5.96,4.616 3.928,5.721 1.5,5.796 1.374,5.759 1.248,5.72 1.121,5.682 0.861,5.592 0.604,5.499 0.344,5.418 -1.96,4.686 -4.014,3.38 -6.272,2.543 -7.969,1.912 -9.718,1.681 -11.519,1.812 c -0.536,0.04 -1.04,0.441 -1.605,0.149 0.951,-1.728 2.492,-2.779 4.218,-3.572 1.992,-0.916 4.025,-0.583 6.045,-0.054 0.499,0.235 0.998,0.472 1.496,0.706 C -0.91,-0.64 -0.455,-0.318 0,0" /></g><g
           transform="translate(32.4258,16.0967)"
           id="g72"><path
             id="path74"
             style="fill:#f9b43b;fill-opacity:1;fill-rule:evenodd;stroke:none"
             d="m 0,0 c -1.174,0.394 -2.376,0.705 -3.583,0.242 -1.696,-0.652 -3.396,-1.288 -5.128,-1.84 -1.39,-0.442 -2.796,-0.794 -4.283,-0.647 -0.32,0.032 -0.711,0.216 -1.011,-0.236 2.812,-1.15 5.504,-2.677 8.71,-1.845 0.902,0.364 1.808,0.726 2.711,1.091 0.066,0.042 0.133,0.082 0.199,0.122 1.263,0.631 2.45,1.41 3.769,1.927 C 1.298,-0.353 0.493,-0.356 0,0" /></g><g
           transform="translate(22.0156,39.2373)"
           id="g76"><path
             id="path78"
             style="fill:#f9b43b;fill-opacity:1;fill-rule:evenodd;stroke:none"
             d="m 0,0 c -0.822,0.457 -1.882,0.436 -2.76,0.384 -1.202,-0.068 -2.362,-0.073 -3.533,0.165 -0.092,0.045 -0.183,0.089 -0.273,0.132 0.327,-0.909 0.993,-1.563 1.633,-2.256 0.411,-0.445 0.821,-0.54 1.39,-0.581 1.491,-0.109 2.933,0.383 4.416,0.295 C 1.099,-1.919 1.326,-1.976 1.551,-2.034 1.233,-1.2 0.754,-0.418 0,0" /></g><g
           transform="translate(38.8203,4.1631)"
           id="g80"><path
             id="path82"
             style="fill:#e55028;fill-opacity:1;fill-rule:evenodd;stroke:none"
             d="m 0,0 c -1.171,0.494 -2.296,0.518 -3.313,-0.302 -0.572,-0.464 -1.194,-0.786 -1.997,-1.032 1.171,-0.57 2.314,-0.802 3.478,-0.628 0.805,0.116 1.624,0.376 2.042,1.234 C 0.373,-0.39 0.45,-0.188 0,0" /></g></g></g></g></svg>